<?xml version="1.0" encoding="utf-8"?>
<!-- Svg Vector Icons : http://www.onlinewebfonts.com/icon -->
<!DOCTYPE svg PUBLIC "-//W3C//DTD SVG 1.1//EN" "http://www.w3.org/Graphics/SVG/1.1/DTD/svg11.dtd">
<svg version="1.1" xmlns="http://www.w3.org/2000/svg" xmlns:xlink="http://www.w3.org/1999/xlink" x="0px" y="0px" viewBox="0 0 1000 1000" enable-background="new 0 0 1000 1000" xml:space="preserve">
<metadata> Svg Vector Icons : http://www.onlinewebfonts.com/icon </metadata>
<g><g transform="translate(0.000000,512.000000) scale(0.100000,-0.100000)"><path d="M4427.7,5074.2c-112.9-35-219.9-109-332.8-227.7c-167.4-179-260.8-387.3-260.8-583.8c0-89.5-1.9-93.4-72-114.8c-192.6-62.3-379.5-235.5-480.6-447.6c-58.4-122.6-60.3-134.3-66.2-451.5l-7.8-326.9h-529.3H2149l-72,219.9c-38.9,120.7-72,231.6-72,243.2c0,33.1-134.3,210.2-216,290c-37,35-118.7,87.6-182.9,116.8l-116.8,54.5l-568.2,5.8c-535.1,5.8-574.1,3.9-657.7-33.1c-149.8-66.2-206.3-253-128.4-424.2c66.2-145.9,89.5-149.8,710.3-161.5l544.9-9.7l120.7-383.3c66.2-210.2,138.2-406.7,159.6-437.8c21.4-29.2,426.2-947.7,901-2037.4c937.9-2152.2,904.9-2086.1,1124.8-2234c48.6-33.1,93.4-64.2,97.3-66.2c3.9-3.9-48.7-138.2-116.8-299.7c-120.6-286.1-124.5-291.9-182.9-291.9c-112.9-1.9-330.8-58.4-467-124.6c-342.5-163.4-581.8-472.9-659.7-854.3c-38.9-186.8-38.9-288,0-476.8c50.6-249.1,144-416.4,336.6-607.1c103.1-103.1,208.2-186.8,274.4-219.9l107-52.5h476.8h476.8l126.5,73.9c181,105.1,346.4,276.3,437.8,457.3l77.8,149.8h1443.9h1441.9l73.9-132.3c91.5-165.4,326.9-400.9,486.5-486.5l120.7-62.3h465.1h463.1l124.6,73.9c685,398.9,805.6,1342.7,245.2,1901.2c-474.8,476.8-1233.7,474.8-1710.5-1.9c-175.1-175.1-272.4-356.1-354.1-663.6c-5.8-19.5-293.8-25.3-1358.3-25.3H4770.2l-21.4,83.7c-73.9,293.8-258.8,562.4-513.7,745.3l-56.4,40.9l136.2,319.1l138.2,319.1l2342.9,9.7l2344.9,9.7l93.4,58.4c70,42.8,110.9,87.6,149.8,163.5l54.5,103.1V287.1c0,1903.1,1.9,2012.1,35,2012.1c17.5,0,70.1,17.5,116.8,38.9c210.2,95.4,210.2,449.5,0,544.9c-75.9,35-130.4,38.9-583.8,38.9h-500.1l-5.8,930.2l-5.8,928.2l-56.4,101.2c-68.1,124.6-103.1,157.6-200.4,192.7C8132.8,5111.1,4546.4,5111.1,4427.7,5074.2z M7881.8,3680.8v-758.9h-467h-467v264.7c0,167.3,7.8,278.3,23.3,305.5c11.7,23.3,23.4,122.6,23.4,221.8c1.9,167.3-2,182.9-56.4,262.7c-112.9,159.6-46.7,151.8-1336.9,151.8H4456.9v87.6c0,68.1,11.7,99.3,60.3,155.7l60.3,68.1h1652.1h1652.1V3680.8z M6325,3233.3v-311.4H5079.6H3834.2v247.1c0,223.8,3.9,253,44.8,311.4l42.8,64.2h1202.6H6325V3233.3z M8815.8,431.1V-1437h-2341h-2341l-64.2,44.7c-56.4,38.9-142.1,223.8-860.1,1852.5c-437.8,996.3-795.9,1815.6-795.9,1825.3c0,7.8,1440,13.6,3201.1,13.6h3201.1V431.1z M8899.5-3219.5c122.6-40.9,253-161.5,319.2-295.8c44.7-91.5,54.5-136.2,54.5-256.9c-1.9-243.2-114.8-426.2-330.8-529.3c-301.6-142.1-657.7-9.7-793.9,293.9c-58.4,128.4-56.4,328.8,3.9,465.1c56.4,122.6,219.9,280.2,336.7,321.1C8599.8-3182.5,8786.6-3180.6,8899.5-3219.5z M3777.7-3262.3c128.4-58.4,241.3-167.4,303.6-291.9c73.9-151.8,77.8-356.1,7.8-498.2c-179-361.9-630.5-453.4-922.4-186.8c-140.1,128.4-196.5,254.9-196.5,437.8C2968.2-3381,3402.2-3091.1,3777.7-3262.3z"/><path d="M4305.1,1950.9c-62.3-29.2-91.5-60.3-120.6-122.6c-37-79.8-38.9-138.2-38.9-1397.2c0-1259,1.9-1317.4,38.9-1397.2c66.2-144,253-198.5,424.2-120.7c64.2,29.2,91.5,56.4,122.6,124.6c37,83.7,37,128.4,33.1,1420.5c-5.8,1311.6-5.8,1333-46.7,1385.5C4616.4,1980.1,4458.8,2021,4305.1,1950.9z"/><path d="M5239.2,1950.9c-62.3-29.2-91.5-60.3-120.7-122.6c-37-79.8-38.9-138.2-38.9-1397.2c0-1259,1.9-1317.4,38.9-1397.2c66.2-144,253-198.5,424.2-120.7c64.2,29.2,91.5,56.4,122.6,124.6c37,83.7,37,128.4,33.1,1420.5c-5.8,1311.6-5.8,1333-46.7,1385.5C5550.5,1980.1,5392.9,2021,5239.2,1950.9z"/><path d="M6484.6,1949c-64.2-29.2-91.5-56.4-120.7-120.7c-37-79.8-38.9-138.2-38.9-1397.2c0-1259,1.9-1317.4,38.9-1397.2c95.4-210.2,449.5-210.2,544.9,0c37,79.8,38.9,138.2,38.9,1397.2c0,1249.3-1.9,1317.4-37,1395.2C6842.6,1974.2,6657.7,2026.8,6484.6,1949z"/><path d="M7730,1949c-64.2-29.2-91.5-56.4-120.6-120.7c-37-79.8-38.9-138.2-38.9-1397.2c0-1259,1.9-1317.4,38.9-1397.2c95.4-210.2,449.5-210.2,544.9,0c37,79.8,38.9,138.2,38.9,1397.2c0,1259-1.9,1317.4-38.9,1397.2c-42.8,93.4-153.7,159.6-272.4,159.6C7844.8,1987.9,7776.7,1970.4,7730,1949z"/></g></g>
</svg>