<svg width="128" height="128" viewBox="0 0 128 128" fill="none" xmlns="http://www.w3.org/2000/svg">
<rect x="80" y="24" width="17" height="40" rx="8.5" fill="#EEEEEE"/>
<rect x="52" y="49" width="45" height="15" rx="7.5" fill="#EEEEEE"/>
<rect x="30" y="24" width="67" height="17" rx="8.5" fill="#EEEEEE"/>
<path d="M30 33C30 28.0294 34.0294 24 39 24C43.9706 24 48 28.0294 48 33V94C48 98.9706 43.9706 103 39 103C34.0294 103 30 98.9706 30 94V33Z" fill="#EEEEEE"/>
<path d="M59 77H92V97C92 99.2091 90.2091 101 88 101H63C60.7909 101 59 99.2091 59 97V77Z" fill="#EEEEEE"/>
<path d="M69 77H74V86.5C74 87.8807 72.8807 89 71.5 89C70.1193 89 69 87.8807 69 86.5V77Z" fill="#31EA13"/>
<path d="M75 77H80V89.5C80 90.8807 78.8807 92 77.5 92C76.1193 92 75 90.8807 75 89.5V77Z" fill="#5B89FF"/>
<path d="M81 77H86V81.5C86 82.8807 84.8807 84 83.5 84C82.1193 84 81 82.8807 81 81.5V77Z" fill="#FF0303"/>
</svg>
